<svg height="512" viewBox="0 0 128 128" width="512" xmlns="http://www.w3.org/2000/svg"><g><g><path d="m69.5 14.5 6.167 2.667c-6 12.333-6.167 32.5-6.167 32.5h-13a61.5 61.5 0 0 1 13-35.167z" fill="#bae543"/><path d="m81.083 116.613c14.417 11.666 40.417 3.24 40.417-33.893s-26-45.559-40.417-33.892z" fill="#fc4b00"/><path d="m66.083 116.613c14.417 11.666 40.417 3.24 40.417-33.893s-26-45.559-40.417-33.892z" fill="#e43e00"/><path d="m46.917 116.613c-14.417 11.666-40.417 3.24-40.417-33.893s26-45.559 40.417-33.892z" fill="#fc4b00"/><path d="m61.917 116.613c-14.417 11.666-40.417 3.24-40.417-33.893s26-45.559 40.417-33.892z" fill="#e43e00"/><ellipse cx="64" cy="83.411" fill="#fc4b00" rx="22.244" ry="38.083"/></g><g fill="#111b35"><path d="m69.932 29.5c-.245 1.2-.473 2.445-.68 3.71a1.75 1.75 0 1 0 3.453.566c.2-1.221.421-2.425.656-3.577a1.75 1.75 0 1 0 -3.429-.7z"/><path d="m108.509 46.584a23.489 23.489 0 0 0 -21.223-3.138 23.264 23.264 0 0 0 -15.74.259c.091-1.214.2-2.432.324-3.647a1.75 1.75 0 0 0 -3.48-.366c-.157 1.486-.276 2.973-.379 4.453a14.574 14.574 0 0 0 -9.259.4 61.285 61.285 0 0 1 11.279-27.908l3.308 1.431a50.2 50.2 0 0 0 -2 5.689 1.75 1.75 0 1 0 3.361.976 43.157 43.157 0 0 1 2.546-6.8 1.752 1.752 0 0 0 -.879-2.373l-6.17-2.669a1.748 1.748 0 0 0 -2.01.452 60.582 60.582 0 0 0 -11.479 23.31c-2.2-5.595-3.2-12.57-2.957-20.852a10.939 10.939 0 0 0 -2.84-8.281 9.18 9.18 0 0 0 -6.661-2.77 1.75 1.75 0 0 0 0 3.5 5.713 5.713 0 0 1 4.15 1.707 7.687 7.687 0 0 1 1.852 5.74c-.328 10.99 1.459 19.919 5.277 26.6-.056.345-.112.689-.163 1.039a23.261 23.261 0 0 0 -14.666.114c-9.863-3.355-20.577.188-27.464 9.159a1.751 1.751 0 0 0 2.778 2.131c5.025-6.547 12.362-9.761 19.59-8.888-6.09 3.786-15.854 13.503-15.854 36.868 0 23.153 9.682 32.88 15.453 36.617.142.092.29.17.434.259a20.248 20.248 0 0 1 -14.147-3.613c-8.538-5.942-13.24-17.754-13.24-33.263a54.414 54.414 0 0 1 3.476-20.349 1.751 1.751 0 0 0 -3.247-1.31 57.9 57.9 0 0 0 -3.729 21.659c0 16.687 5.235 29.52 14.741 36.136a23.94 23.94 0 0 0 13.711 4.4 23.267 23.267 0 0 0 7.518-1.276 23.688 23.688 0 0 0 7.531 1.25 23.24 23.24 0 0 0 8.759-1.718 14.994 14.994 0 0 0 13.98 0 23.221 23.221 0 0 0 8.759 1.718 23.688 23.688 0 0 0 7.531-1.25 23.267 23.267 0 0 0 7.518 1.276 23.945 23.945 0 0 0 13.711-4.4c9.506-6.616 14.741-19.449 14.741-36.136s-5.235-29.52-14.741-36.136zm-71.409 69.816c-5.174-3.35-13.855-12.181-13.855-33.678 0-22.107 9.095-30.847 14.517-34.09a20.013 20.013 0 0 1 16.826-1.859c-8.568 6.085-14.587 20.217-14.587 36.64 0 15.6 5.429 29.117 13.311 35.653a20.247 20.247 0 0 1 -16.212-2.666zm37.577 2.666c7.883-6.536 13.312-20.058 13.312-35.653a64.025 64.025 0 0 0 -1.64-14.582 1.75 1.75 0 1 0 -3.408.8 60.441 60.441 0 0 1 1.548 13.783c0 16.115-5.95 29.806-14.159 34.548a1.765 1.765 0 0 0 -.436.244 12.061 12.061 0 0 1 -11.8 0 1.78 1.78 0 0 0 -.438-.245c-8.209-4.742-14.159-18.433-14.159-34.548.009-20.036 9.203-36.335 20.503-36.335 6.443 0 12.612 5.573 16.5 14.909a1.749 1.749 0 1 0 3.23-1.345c-2.6-6.235-6.2-10.989-10.309-13.879a20.01 20.01 0 0 1 16.812 1.867c5.422 3.243 14.517 11.983 14.517 34.09 0 21.5-8.681 30.328-13.855 33.678a20.246 20.246 0 0 1 -16.213 2.666zm31.828-3.081a20.254 20.254 0 0 1 -14.142 3.615c.144-.089.292-.167.434-.259 5.771-3.737 15.453-13.464 15.453-36.617 0-23.386-9.781-33.1-15.871-36.878a20.257 20.257 0 0 1 14.13 3.614c8.539 5.94 13.241 17.751 13.241 33.26s-4.702 27.321-13.24 33.263z"/><path d="m79.264 94.322a1.749 1.749 0 0 0 -2.1 1.316 42.116 42.116 0 0 1 -2.426 7.468 1.749 1.749 0 0 0 .9 2.305 1.725 1.725 0 0 0 .7.148 1.748 1.748 0 0 0 1.6-1.048 45.512 45.512 0 0 0 2.633-8.092 1.75 1.75 0 0 0 -1.307-2.097z"/></g></g></svg>