<?xml version="1.0" encoding="utf-8"?>
<!-- Generator: Adobe Illustrator 26.0.1, SVG Export Plug-In . SVG Version: 6.00 Build 0)  -->
<svg version="1.1" id="Capa_1" xmlns="http://www.w3.org/2000/svg" xmlns:xlink="http://www.w3.org/1999/xlink" x="0px" y="0px"
	 viewBox="0 0 1190.6 841.9" style="enable-background:new 0 0 1190.6 841.9;" xml:space="preserve">
<style type="text/css">
	.st0{fill:#515151;}
</style>
<g>
	<path class="st0" d="M2.4,766c1.4-15.7,10-28.5,18.5-40.7c7.8-11.4,17.1-22.1,25-33.5c5.7-7.8,10.7-16.4,15.7-24.2
		c2.1-3.6,2.1-7.8,4.3-13.6c-6.4,0.7-11.4,1.4-15.7,2.1c-7.1,2.1-14.3,5-22.1,6.4c-4.3,1.4-9.3,2.1-14.3,2.1
		c-7.1-0.7-10.7-5-11.4-12.1c-0.7-5-0.7-10-0.7-14.3c0.7-98.4,1.4-196.8,2.1-294.6c0-7.8,0.7-15,1.4-24.3c4.3-0.7,8.6-1.4,12.1-1.4
		c56.3,0,112,0,168.3,0c22.1,0,43.5,4.3,64.9,12.8c20,7.8,37.8,19.3,51.4,36.4c8.6,10,17.8,15,30,15.7c7.1,0.7,14.3,1.4,20.7,3.6
		c18.5,6.4,24.2,20.7,15,37.8c-3.6,7.8-9.3,15-15,21.4c-10.7,12.8-17.1,25.7-19.3,42.8c-7.1,49.2-30,91.3-67.8,124.8
		c-3.6,3.6-7.1,6.4-11.4,10.7c3.6,5,7.1,10.7,10.7,15c30,37.8,59.9,75.6,90.6,114.1c4.3,5.7,8.6,12.1,13.6,17.8
		c-12.8,10.7-69.9,42.8-124.1,67.8c-6.4-0.7-7.8-7.1-10-11.4c-29.2-52.8-58.5-104.8-88.4-157.6c-4.3-7.8-7.8-16.4-17.8-20.7
		c-7.1,12.1-10,25-10,39.2c0,43.5,0,87,0,130.5c0,6.4-0.7,13.6-0.7,20.7c-4.3,0.7-6.4,1.4-9.3,1.4c-34.9,0-70.6,0-107.7,0
		C-0.5,813.8-0.5,790.3,2.4,766z M273.4,436.5c-11.4,2.1-22.8,5-34.2,7.8c-4.3,0.7-9.3,2.1-14.3,2.9c-6.4,0.7-11.4-1.4-15.7-7.8
		c-3.6-5-6.4-10-10.7-15c-21.4-22.8-54.2-26.4-79.9-8.6c0,37.8,0,75.6,0,113.4c0,2.9,0.7,5.7,1.4,8.6c1.4,3.6,5.7,7.1,10,5
		c5.7-2.9,12.1-5.7,17.8-9.3c22.8-14.3,44.9-27.8,67-41.4c10.7-6.4,22.1-12.1,34.9-12.8c4.3,0,10-1.4,13.6-4.3
		c11.4-9.3,22.1-19.3,32.1-29.2c2.1-2.1,2.1-5.7,3.6-10C289.8,432.9,281.9,434.4,273.4,436.5z"/>
	<path class="st0" d="M396,776.7c2.1-35.7,32.8-62.8,68.5-59.2c10,0.7,20,1.4,29.2-1.4c5-1.4,11.4-1.4,16.4-1.4
		c12.8,0,20.7,7.8,22.1,20.7c0,4.3-0.7,9.3-2.1,14.3c-3.6,16.4-7.1,32.1-12.1,48.5c-7.8,27.8-34.9,44.2-59.2,43.5
		C424.6,843,394.6,813.1,396,776.7z"/>
	<path class="st0" d="M1021.5,841.6c-28.5,0.7-126.2,0-141.2-2.1c-12.8-44.9-20.7-91.3-32.8-136.9c-17.1-2.9-107-3.6-128.4-0.7
		c-8.6,22.8-13.6,46.4-20,69.2c-7.1,22.8-13.6,45.6-20,67.8c-15.7,2.9-99.1,3.6-124.1,1.4c0.7-4.3,0.7-7.8,1.4-11.4
		c14.3-43.5,28.5-86.3,43.5-129.1c5-13.5,11.4-25,20-35.7c16.4-20.7,34.9-37.8,55.6-53.5c12.1-9.3,24.2-19.3,36.4-29.2
		c2.9-2.9,5.7-7.1,8.6-10.7c2.1-2.9,0-8.6-3.6-8.6c-7.1,0-14.3,0.7-21.4,0.7c-10.7,0.7-20.7,2.9-31.4,2.1
		c-10.7-1.4-15-7.1-12.1-18.5c0.7-3.6,2.1-6.4,2.9-9.3c22.8-66.3,44.2-131.9,66.3-196.8c1.4-3.6,2.9-7.1,4.3-10
		c16.4-5.7,123.4-14.3,141.2-12.8c1.4,5,3.6,10.7,5,15.7c10,30.7,20,61.3,29.2,92.7c7.1,21.4,7.1,21.4,28.5,27.1
		c6.4,1.4,13.6,2.9,19.3,5.7c17.8,7.8,21.4,21.4,10.7,38.5c-3.6,6.4-8.6,12.1-13.5,17.1c-9.3,9.3-10.7,19.3-6.4,31.4
		c17.1,55.6,34.2,112,52.8,166.9c11.4,37.8,23.5,74.9,34.9,112.7c1.4,4.3,2.1,9.3,3.6,14.3C1026.5,840.2,1024.4,840.9,1021.5,841.6z
		 M819.7,591.3c0.7-2.1,1.4-4.3,0.7-5.7c-3.6-12.1,2.1-22.1,10-30c5.7-4.3,10.7-8.6,16.4-12.8c9.3-6.4,19.3-11.4,28.5-18.5
		c11.4-7.1,22.1-15.7,32.1-24.2c2.1-1.4,2.9-5,5.7-9.3c-5.7-1.4-8.6-2.9-12.1-2.1c-8.6,0-17.1,1.4-25.7,1.4
		c-18.5,0.7-36.4,2.1-55.6,2.1c-17.1-0.7-20-4.3-25-21.4c-0.7-3.6,0-8.6-6.4-10c-3.6,7.1-5.7,15.7-7.8,23.5
		c-2.9,12.8,0.7,18.5,13.6,20c7.1,0.7,14.3,0,22.1,0c10.7,0,22.1,0,32.8,0c4.3,0,7.8,0.7,12.1,0.7c3.6,0.7,5,6.4,2.9,8.6
		c-6.4,5-12.8,10-19.3,14.3c-22.8,15.7-44.9,30.7-67,46.4c-6.4,4.3-11.4,9.3-18.5,16.4C776.9,594.8,800.4,594.8,819.7,591.3z"/>
	<path class="st0" d="M1054.3,776.7c2.1-35.7,32.8-62.8,68.5-59.2c10,0.7,20,1.4,29.2-1.4c5-1.4,11.4-1.4,16.4-1.4
		c12.8,0,20.7,7.8,22.1,20.7c0,4.3-0.7,9.3-2.1,14.3c-3.6,16.4-7.1,32.1-12.1,48.5c-7.8,27.8-34.9,44.2-59.2,43.5
		C1082.9,843,1052.9,813.1,1054.3,776.7z"/>
</g>
</svg>
