<?xml version="1.0" encoding="UTF-8"?>
<!DOCTYPE svg PUBLIC "-//W3C//DTD SVG 1.1//EN" "http://www.w3.org/Graphics/SVG/1.1/DTD/svg11.dtd">
<svg version="1.1" id="Layer_1" xmlns="http://www.w3.org/2000/svg" xmlns:xlink="http://www.w3.org/1999/xlink" x="0px" y="0px" width="21px" height="21px" viewBox="0 0 21 21" enable-background="new 0 0 21 21" xml:space="preserve">
  <g id="icon">
    <g>
      <g>
        <path d="M19.4692,5.2817c-0.6611,0.301,-1.3705,0.5052,-2.1159,0.5963c0.7611,-0.4683,1.3448,-1.2109,1.6198,-2.0943c-0.7117,0.4336,-1.5008,0.7484,-2.3404,0.9191c-0.6723,-0.7357,-1.6298,-1.1959,-2.6894,-1.1959c-2.035,0,-3.685,1.6952,-3.685,3.7849c0,0.2964,0.0326,0.5858,0.0954,0.8626c-3.062,-0.158,-5.7772,-1.6652,-7.5945,-3.9556c-0.3177,0.5594,-0.4984,1.2098,-0.4984,1.9028c0,1.3136,0.651,2.4726,1.6388,3.1507c-0.6038,-0.0196,-1.1718,-0.1903,-1.6691,-0.474c0,0.0161,0,0.0311,0,0.0473c0,1.8336,1.2707,3.364,2.9555,3.7122c-0.3087,0.0865,-0.6342,0.1326,-0.9709,0.1326c-0.238,0,-0.468,-0.0242,-0.6937,-0.068c0.4691,1.5039,1.8296,2.5982,3.4414,2.6293c-1.2606,1.0148,-2.8499,1.6204,-4.5763,1.6204c-0.2975,0,-0.5904,-0.0185,-0.8789,-0.0531C3.1386,17.8727,5.0748,18.5,7.1559,18.5c6.7774,0,10.4837,-5.7685,10.4837,-10.7711c0,-0.1638,-0.0034,-0.3276,-0.0112,-0.4902C18.3501,6.7071,18.9754,6.0405,19.4692,5.2817z" fill="none" stroke="#FFD139" stroke-width="0.1069" stroke-linecap="round" stroke-miterlimit="1" stroke-linejoin="round"/>
      </g>
      <g>
        <path d="M19.4692,5.2817c-0.6611,0.301,-1.3705,0.5052,-2.1159,0.5963c0.7611,-0.4683,1.3448,-1.2109,1.6198,-2.0943c-0.7117,0.4336,-1.5008,0.7484,-2.3404,0.9191c-0.6723,-0.7357,-1.6298,-1.1959,-2.6894,-1.1959c-2.035,0,-3.685,1.6952,-3.685,3.7849c0,0.2964,0.0326,0.5858,0.0954,0.8626c-3.062,-0.158,-5.7772,-1.6652,-7.5945,-3.9556c-0.3177,0.5594,-0.4984,1.2098,-0.4984,1.9028c0,1.3136,0.651,2.4726,1.6388,3.1507c-0.6038,-0.0196,-1.1718,-0.1903,-1.6691,-0.474c0,0.0161,0,0.0311,0,0.0473c0,1.8336,1.2707,3.364,2.9555,3.7122c-0.3087,0.0865,-0.6342,0.1326,-0.9709,0.1326c-0.238,0,-0.468,-0.0242,-0.6937,-0.068c0.4691,1.5039,1.8296,2.5982,3.4414,2.6293c-1.2606,1.0148,-2.8499,1.6204,-4.5763,1.6204c-0.2975,0,-0.5904,-0.0185,-0.8789,-0.0531C3.1386,17.8727,5.0748,18.5,7.1559,18.5c6.7774,0,10.4837,-5.7685,10.4837,-10.7711c0,-0.1638,-0.0034,-0.3276,-0.0112,-0.4902C18.3501,6.7071,18.9754,6.0405,19.4692,5.2817z" fill="none" stroke="#FFD139" stroke-width="1" stroke-linecap="round" stroke-miterlimit="1" stroke-linejoin="round"/>
      </g>
    </g>
  </g>
</svg>
